<?xml version="1.0" encoding="utf-8"?>
<!-- Generator: Adobe Illustrator 19.0.0, SVG Export Plug-In . SVG Version: 6.00 Build 0)  -->
<svg version="1.1" id="Layer_1" xmlns="http://www.w3.org/2000/svg" xmlns:xlink="http://www.w3.org/1999/xlink" x="0px" y="0px"
	 viewBox="0 0 564.4 320.4" style="enable-background:new 0 0 564.4 320.4;" xml:space="preserve">
<style type="text/css">
	.st0{fill:#8E9090;}
	.st1{fill-rule:evenodd;clip-rule:evenodd;fill:#CF0A2C;}
</style>
<g>
	<g>
		<path class="st0" d="M234.7,282.6l-1.4,1.2h-86.8l-0.8-2.7c10.6-9.8,21-19.8,31.3-29.8c8.4-8,17.6-15.7,23.9-25.5
			c2.9-4.5,5.1-9.4,5.1-14.9c0-14.5-11.8-20.6-24.9-20.6c-13.3,0-24.1,6.5-32.5,16.5l-1.6-0.6c0-6.3,0.2-12.7,0.2-19l0.8-1.6
			c11.6-8.4,23.9-12,38-12c21.2,0,41.9,9.6,41.9,33.7c0,4.5-0.8,9.2-2.2,13.5c-5.5,16.7-26.8,35.1-39.8,46.8
			c16.3,0,32.3-0.6,48.6-0.6l1,1.4C235.1,273.2,234.9,277.9,234.7,282.6z"/>
		<path class="st0" d="M259.2,320.4c-7.1,0-14.1-0.6-21-2.2l-0.8-1.6c0.2-4.5,0.4-9,0.4-13.5l1.6-0.6c5.9,1.6,12.1,2.4,18.2,2.4
			c21.9,0,41.9-11.4,41.9-35.5c0-18.6-14.9-29.8-32.5-29.8c-8.8,0-17.4,2.7-25.1,7.1l-1.6-0.6c2.5-22.7,5.3-45.6,6.5-68.6l1.4-1.4
			c18.2,0,36.2,0,54.5-0.2c3.9,0,8,0,11.9-0.4l1.2,1.4c-0.2,4.9-0.4,9.6-0.4,14.5l-1.4,1.2c-9.4,0-19-0.4-28.4-0.4h-21l-3.1,33.1
			c4.9-1.4,9.8-2.2,14.9-2.2c26.4,0,44.5,18.2,44.5,44.7C320.9,301.6,290,320.4,259.2,320.4z"/>
	</g>
	<g>
		<path class="st0" d="M373.8,286.1c-32.9,0-47.6-24.7-47.6-54.8c0-31.5,16.1-57.6,50.1-57.6c34.1,0,46.8,26.6,46.8,57
			C423.2,261.6,406.9,286.1,373.8,286.1z M375.6,188.8c-21.5,0-27.4,23.1-27.4,40.5c0,17.2,4.5,41.9,26.4,41.9
			c22.5,0,27-23.9,27-41.7C401.6,212.5,397.3,188.8,375.6,188.8z"/>
	</g>
	<g>
		<path class="st0" d="M169.9,24.9c-2,0-4,0-6,0.1l-0.2-0.3c0-1.8,0.1-3.6,0.1-5.3c0.1-3.1,0.1-6.2,0.1-9.4c0-1.7,0-3.5,0-5.2
			c-1.1,0.1-2.2,0.2-3.3,0.4l-0.2-0.2c0.1-1.2,0.2-2.4,0.3-3.6l0.3-0.3c3-0.4,6-0.7,9-1.2l0.2,0.2c-0.1,3.6-0.2,7.3-0.2,10.9v4.4
			c0,3.1,0.1,6.1,0.3,9.2L169.9,24.9z"/>
		<path class="st0" d="M196.4,24.7l-0.3,0.3c-2.2,0-4.4,0-6.7,0.1l-0.2-0.3c1.2-2.9,2.3-5.8,3.4-8.7c1.4-3.6,2.8-7.3,4.2-10.9
			c-1.5,0.1-3,0.1-4.5,0.1c-1.9,0-3.8,0.1-5.7,0.1l-0.2-0.2l0.4-4.2l0.2-0.3c2.2,0,4.3,0,6.4,0h3.3c2.4,0,4.8,0,7.1-0.1l0.2,0.3
			C201.3,8.7,198.4,16.6,196.4,24.7z"/>
	</g>
	<g>
		<path class="st0" d="M226,25.4c-7.2,0-9.4-5.4-9.4-11.8v-0.1c0-7.6,3.2-13.4,11.6-13.4c1.6,0,3.2,0.2,4.8,0.6l0.2,0.3
			c-0.1,1.4-0.2,2.8-0.3,4.2l-0.4,0.2c-1.1-0.7-2.8-1.1-4.1-1.1c-4,0-5.3,2.7-5.9,6.1c1.5-1.2,3-1.7,5-1.7c4.7,0,7.5,3.7,7.5,8.2
			C235,22.5,231.3,25.4,226,25.4z M225.9,13.4c-1.7,0-2.7,1-3.2,2.4c0,0.3,0,0.5,0,0.7c0,2.3,0.9,4.8,3.6,4.8c2.2,0,3.1-1.8,3.1-3.8
			C229.4,15.5,228.3,13.4,225.9,13.4z"/>
		<path class="st0" d="M257.8,25.4c-7.2,0-9.4-5.4-9.4-11.8v-0.1c0-7.6,3.2-13.4,11.6-13.4c1.6,0,3.2,0.2,4.8,0.6L265,1
			c-0.1,1.4-0.2,2.8-0.3,4.2l-0.4,0.2c-1.1-0.7-2.8-1.1-4.1-1.1c-4,0-5.3,2.7-5.9,6.1c1.5-1.2,3-1.7,5-1.7c4.7,0,7.5,3.7,7.5,8.2
			C266.8,22.5,263.1,25.4,257.8,25.4z M257.7,13.4c-1.7,0-2.7,1-3.2,2.4c0,0.3,0,0.5,0,0.7c0,2.3,0.9,4.8,3.6,4.8
			c2.2,0,3.1-1.8,3.1-3.8C261.1,15.5,260.1,13.4,257.7,13.4z"/>
		<path class="st0" d="M290.8,16.8l-0.2,0.2c-1.9,0-3.9,0-5.8,0h-1.6c-1,0-2,0-3,0.1l-0.2-0.2c0.1-1.4,0.2-2.8,0.2-4.1l0.3-0.2
			c3.5,0,6.9,0,10.4,0l0.2,0.2C290.9,14,290.8,15.4,290.8,16.8z"/>
	</g>
	<g>
		<path class="st0" d="M320,24.6l-0.3,0.3c-5.8,0-11.6,0.1-17.4,0.1l-0.2-0.4c1.4-1.5,2.7-3.2,4-4.9c2.1-2.6,6.7-7.6,6.7-10.9
			c0-2.5-1.9-3.9-4.3-3.9c-2.1,0-3.9,1-5.4,2.3l-0.3-0.2c0.1-1.6,0.2-3.2,0.2-4.8l0.2-0.3c2.4-1.1,4.4-1.7,7.1-1.7
			c4.8,0,8.9,2.7,8.9,7.8c0,3.7-2.6,6.6-4.9,9.3l-2.5,3c2.7,0,5.5-0.1,8.2-0.2l0.2,0.2C320.1,21.7,320,23.2,320,24.6z"/>
		<path class="st0" d="M342.8,25.4c-7.6,0-9.1-6.4-9.1-12.6c0-6.5,2-12.7,9.5-12.7c7.6,0,9,6.3,9,12.6
			C352.3,19.3,350.6,25.4,342.8,25.4z M346,9.7c-0.1-1.8-0.4-5.6-2.9-5.6c-3.2,0-3.2,6.4-3.2,8.6c0,2.1-0.1,8.8,3.1,8.8
			c0.8,0,1.4-0.5,1.9-1.1c1-1.4,1.1-6.6,1.1-8.3C346.1,11.2,346,10.5,346,9.7z"/>
	</g>
	<g>
		<path class="st0" d="M376.3,24.9c-2,0-4,0-6,0.1l-0.2-0.3c0-1.8,0.1-3.6,0.1-5.3c0.1-3.1,0.1-6.2,0.1-9.4c0-1.7,0-3.5,0-5.2
			c-1.1,0.1-2.2,0.2-3.3,0.4l-0.2-0.2c0.1-1.2,0.2-2.4,0.3-3.6l0.3-0.3c3-0.4,6-0.7,9-1.2l0.2,0.2c-0.1,3.6-0.2,7.3-0.2,10.9v4.4
			c0,3.1,0.1,6.1,0.3,9.2L376.3,24.9z"/>
		<path class="st0" d="M403.1,25.4c-7.2,0-9.4-5.4-9.4-11.8v-0.1c0-7.6,3.2-13.4,11.6-13.4c1.6,0,3.2,0.2,4.8,0.6l0.2,0.3
			c-0.1,1.4-0.2,2.8-0.3,4.2l-0.4,0.2c-1.1-0.7-2.8-1.1-4.1-1.1c-4,0-5.3,2.7-5.9,6.1c1.5-1.2,3-1.7,5-1.7c4.7,0,7.5,3.7,7.5,8.2
			C412.1,22.5,408.4,25.4,403.1,25.4z M403,13.4c-1.7,0-2.7,1-3.2,2.4c0,0.3,0,0.5,0,0.7c0,2.3,0.9,4.8,3.6,4.8
			c2.2,0,3.1-1.8,3.1-3.8C406.4,15.5,405.3,13.4,403,13.4z"/>
	</g>
</g>
<g>
	<path class="st1" d="M167.1,145.5l3.9-1.2V77.9c0-16.1,0-16.7,5.1-17.3l4.7-0.4v-2.8h-32v2.8l4.7,0.4c5.1,0.5,5.1,1.2,5.1,17.3
		v53.5c-2,2.4-10.1,10.5-23.8,10.5c-20.4,0-23.6-12.5-23.6-31.4V77.9c0-16.1,0-16.7,5.1-17.3l4.7-0.4v-2.8h-32v2.8l4.7,0.4
		c5.1,0.5,5.1,1.2,5.1,17.3v34.8c0,17.9,2.2,33.6,29.5,33.6c17.5,0,28.4-8.3,30.3-8.3c2,0,3,1.8,4.9,3.7L167.1,145.5z"/>
	<path class="st1" d="M202.4,144.3h36.5v-2.8l-4.7-0.4c-7.4-0.5-7.4-1.2-7.4-17.3V61.1h6.8c18.6,0,18.8,2,21.7,17.3h3.2
		c0-0.5-0.7-18.1-1.2-20.9h-73.3c-0.5,2.9-1.2,20.4-1.2,20.9h3.2c2.9-15.3,3.2-17.3,21.7-17.3h6.9v62.7c0,16.1,0,16.7-7.2,17.3
		l-4.9,0.4V144.3z"/>
	<path class="st1" d="M339.5,127c0-12.8,0-13.5,2.5-14l4.7-0.4v-2.8h-33.4v2.8l4.7,0.4c9.2,0.5,9.2,1.2,9.2,17.3v9.9
		c-4.6,1.2-10.7,1.7-15.4,1.7c-25.8,0-37.3-20.9-37.3-43.3c0-24.6,13.6-38.8,35.2-38.8c22.5,0,24.2,16.1,25.6,21.3l3.6-0.8
		c-0.6-6.5-1.3-13.9-2.1-19.5c-3.4-2.1-13.4-5.4-26.9-5.4c-20.8,0-49.1,10.5-49.1,45.7c0,33.6,23.7,45.2,50.2,45.2
		c14.1,0,24.2-3.8,28.8-5.2C339.8,141,339.5,130.9,339.5,127z"/>
	<path class="st1" d="M354.8,144.3h60.3c1.7-7.1,3.2-13.7,4.3-21.9l-3.3-0.5c-2.6,10.8-4,18.7-24.9,18.7c-4.7,0-9.6-0.8-14.3-1.7
		V101h11.7c10.2,0,12.6,0.1,13.4,5.5l0.7,4.5h3.5V87.3h-3.5l-0.7,4.5c-0.8,5.4-3.2,5.5-13.4,5.5H377V61.1h10.9
		c18.6,0,18.9,2,21.8,16.1l3.2-0.5c0-1.2-0.7-16.3-1.2-19.2h-56.8v2.8l4.7,0.4c5.1,0.5,5.1,1.2,5.1,17.3v45.9
		c0,16.1,0,16.8-5.1,17.3l-4.7,0.4V144.3z"/>
	<path class="st1" d="M429.8,144.3h31.9v-2.8l-4.7-0.4c-5-0.5-5-1.2-5-17.3v-17.4h4.9c2.8,0,6,0,8.2,1.7c1.7,1.5,4.7,6.5,8.2,12.9
		l5.3,10.2c4,7.3,10,13.1,18.7,13.1h10.1v-2.8c-2.9,0-5.3-0.5-6.6-1.3c-3.3-1.8-9.1-9.6-14.6-19.5c-3.6-6.3-7.9-14.8-9.9-18.5
		c7.2-3.4,18.2-10.7,18.2-22.9c0-20-17.6-21.8-30.1-21.8h-34.4v2.8l4.7,0.4c5.1,0.5,5.1,1.2,5.1,17.3v45.9c0,16.1,0,16.7-5.1,17.3
		l-4.7,0.4V144.3z M451.9,62.8c2.6-0.5,5.4-1.1,8.2-1.1c10.3,0,20.4,4.7,20.4,20.1c0,14.9-10,20.8-21.1,20.8h-7.5V62.8z"/>
	<path class="st1" d="M535.9,90.3c-7.1-4.2-12.8-8.4-12.8-16.2c0-8.8,6.7-14.4,14.4-14.4c14.9,0,17,11.5,18.3,18h3.3
		c-0.3-3.8-0.6-13.5-1.3-18.2c-3.4-2.1-10-4.2-18.2-4.2c-14,0-27.4,6.7-27.4,22.8c0,9.9,7,18,14.5,22.1l8.4,4.6
		c10.3,4.6,18.3,11.2,18.3,20.8c0,10.3-6.7,16.2-15.8,16.2c-18,0-22.9-15.7-24.4-25.2l-4.2,1.1c1.5,9,3,18.2,4.2,23.2
		c4.1,2.5,10.4,5.3,20.7,5.3c14,0,30.4-6.8,30.4-24.6c0-15.8-10.8-21.3-21.2-27.3L535.9,90.3z"/>
	<path class="st1" d="M59,94.1c1.5,8.3,13.1,29.8,17.6,37.7c10.1,18.6,35.9,56.2,55.3,55l2.2,0l0,3.1l-3.4,0.1
		c-27.3,1.1-51.7-29.4-66-53.8c-5.8-9.9-11.4-21.5-16.4-31.8c-1.2-2.7-2.8-4.4-4.6-5.4c-2.7-1.4-6.2-1.4-9.1-1.4c-1.7,0-6.7,0-9.3,0
		l0,21.9c0,4-0.3,14,0.8,18c0.9,3.1,2.7,3.5,5.8,3.8l5.4,0.4v2.5H0v-2.5l5.4-0.4c3.2-0.3,5.1-0.7,6-3.8c1.1-3.9,0.8-13.9,0.8-18
		V63.1c0-4,0.3-14.1-0.8-17.9c-0.9-3.1-2.8-3.5-6-3.8L0,40.9v-2.5l25.5,0c22.4,0,52.6-3.2,52.6,28.3c0,12.7-8.7,21-19.3,26.3
		C58.9,93.5,59,94.1,59,94.1z M25.4,94.1c4,0.2,8.4-0.1,12.4-0.1c15.6,0,25.1-8.4,25.1-23.9c0-16.9-9.7-27.3-26.9-27.3
		c-3.6,0-7.1,0.7-10.5,1.4L25.4,94.1z"/>
</g>
</svg>
